HIERARCHY
ROOT Hips
{
	OFFSET 0.00000 0.00000 0.00000
	CHANNELS 6 Xposition Yposition Zposition Zrotation Yrotation Xrotation 
	JOINT LHipJoint
	{
		OFFSET 0 0 0
		CHANNELS 3 Zrotation Yrotation Xrotation
		JOINT LeftUpLeg
		{
			OFFSET 1.73240 -1.89999 0.57994
			CHANNELS 3 Zrotation Yrotation Xrotation
			JOINT LeftLeg
			{
				OFFSET 2.43106 -6.67930 0.00000
				CHANNELS 3 Zrotation Yrotation Xrotation
				JOINT LeftFoot
				{
					OFFSET 2.78854 -7.66147 0.00000
					CHANNELS 3 Zrotation Yrotation Xrotation
					JOINT LeftToeBase
					{
						OFFSET 0.17314 -0.47571 2.01064
						CHANNELS 3 Zrotation Yrotation Xrotation
						End Site
						{
							OFFSET 0.00000 -0.00000 1.04147
						}
					}
				}
			}
		}
	}
	JOINT RHipJoint
	{
		OFFSET 0 0 0
		CHANNELS 3 Zrotation Yrotation Xrotation
		JOINT RightUpLeg
		{
			OFFSET -1.57078 -1.89998 0.57994
			CHANNELS 3 Zrotation Yrotation Xrotation
			JOINT RightLeg
			{
				OFFSET -2.50166 -6.87326 0.00000
				CHANNELS 3 Zrotation Yrotation Xrotation
				JOINT RightFoot
				{
					OFFSET -2.77304 -7.61886 0.00000
					CHANNELS 3 Zrotation Yrotation Xrotation
					JOINT RightToeBase
					{
						OFFSET -0.23513 -0.64602 2.11039
						CHANNELS 3 Zrotation Yrotation Xrotation
						End Site
						{
							OFFSET -0.00000 -0.00000 1.10597
						}
					}
				}
			}
		}
	}
	JOINT LowerBack
	{
		OFFSET 0 0 0
		CHANNELS 3 Zrotation Yrotation Xrotation
		JOINT Spine
		{
			OFFSET -0.00908 2.00015 -0.35323
			CHANNELS 3 Zrotation Yrotation Xrotation
			JOINT Spine1
			{
				OFFSET 0.05647 2.02258 0.04270
				CHANNELS 3 Zrotation Yrotation Xrotation
				JOINT Neck
				{
					OFFSET 0 0 0
					CHANNELS 3 Zrotation Yrotation Xrotation
					JOINT Neck1
					{
						OFFSET -0.02074 1.73711 0.13117
						CHANNELS 3 Zrotation Yrotation Xrotation
						JOINT Head
						{
							OFFSET -0.02359 1.73615 -0.24320
							CHANNELS 3 Zrotation Yrotation Xrotation
							End Site
							{
								OFFSET -0.00579 1.75982 -0.09688
							}
						}
					}
				}
				JOINT LeftShoulder
				{
					OFFSET 0 0 0
					CHANNELS 3 Zrotation Yrotation Xrotation
					JOINT LeftArm
					{
						OFFSET 3.20537 1.11432 -0.27680
						CHANNELS 3 Zrotation Yrotation Xrotation
						JOINT LeftForeArm
						{
							OFFSET 5.05923 -0.00000 -0.00000
							CHANNELS 3 Zrotation Yrotation Xrotation
							JOINT LeftHand
							{
								OFFSET 3.51996 -0.00000 0.00000
								CHANNELS 3 Zrotation Yrotation Xrotation
								JOINT LeftFingerBase
								{
									OFFSET 0 0 0
									CHANNELS 3 Zrotation Yrotation Xrotation
									JOINT LeftHandIndex1
									{
										OFFSET 0.65238 -0.00000 0.00000
										CHANNELS 3 Zrotation Yrotation Xrotation
										End Site
										{
											OFFSET 0.52596 -0.00000 0.00000
										}
									}
								}
								JOINT LThumb
								{
									OFFSET 0 0 0
									CHANNELS 3 Zrotation Yrotation Xrotation
									End Site
									{
										OFFSET 0.53399 -0.00000 0.53399
									}
								}
							}
						}
					}
				}
				JOINT RightShoulder
				{
					OFFSET 0 0 0
					CHANNELS 3 Zrotation Yrotation Xrotation
					JOINT RightArm
					{
						OFFSET -2.96983 1.42602 -0.37449
						CHANNELS 3 Zrotation Yrotation Xrotation
						JOINT RightForeArm
						{
							OFFSET -5.40867 -0.00000 0.00000
							CHANNELS 3 Zrotation Yrotation Xrotation
							JOINT RightHand
							{
								OFFSET -3.12964 -0.00000 0.00000
								CHANNELS 3 Zrotation Yrotation Xrotation
								JOINT RightFingerBase
								{
									OFFSET 0 0 0
									CHANNELS 3 Zrotation Yrotation Xrotation
									JOINT RightHandIndex1
									{
										OFFSET -0.83271 -0.00000 0.00000
										CHANNELS 3 Zrotation Yrotation Xrotation
										End Site
										{
											OFFSET -0.67135 -0.00000 0.00000
										}
									}
								}
								JOINT RThumb
								{
									OFFSET 0 0 0
									CHANNELS 3 Zrotation Yrotation Xrotation
									End Site
									{
										OFFSET -0.68160 -0.00000 0.68160
									}
								}
							}
						}
					}
				}
			}
		}
	}
}
MOTION
Frames: 8
Frame Time: 0.0645161
0.00 0.00 0.00 0 0 0 0 0 0 -21 0 0 0 0 0 0 0 0 0 0 0 0 0 0 21 0 0 0 0 0 0 0 0 0 0 0 0 0 0 0 0 0 0 0 0 0 0 -16 0 0 21 0 0 11 0 0 0 -8 0 0 0 0 0 0 0 0 0 0 0 0 0 0 0 0 0 0 0 0 8 0 0 0 0 0 0 0 0 0 0 0 0 0 0 0 0 0
0.00 0.00 0.00 -179.2570 1.9719 177.3940 0.0000 0.0000 0.0000 -21.6110 -7.3890 0.6498 1.4938 7.7209 21.8695 0.5661 4.6443 -16.6658 0.2994 -3.5183 -9.7253 0.0000 0.0000 0.0000 16.5453 6.8796 -2.9476 -2.2137 -9.2978 26.7313 -0.7068 -7.6623 -20.4660 -0.0596 -1.5751 4.3327 -4.9346 -0.0639 20.7625 4.1939 -0.4320 0.6965 7.6449 0.3344 -10.8371 -4.0841 -0.3648 -8.2269 -3.6741 0.9602 12.8942 -0.3958 0.1818 5.2526 0.0000 -0.0000 0.0000 -85.9603 15.9929 13.0877 28.8253 -39.8650 -10.6486 -0.0000 0.0000 -10.7584 14.7869 52.9403 11.8953 -7.1250 0.0000 -0.0000 -65.4320 76.7898 -52.5784 0.0000 -0.0000 0.0000 54.4208 -8.2761 -52.3808 -72.3539 58.7901 -44.7801 0.0000 -0.0000 -49.1119 -3.2131 2.5899 -0.1453 7.1250 -0.0000 -0.0000 17.7275 -27.2320 8.0124
0.00 0.00 0.00 -179.5040 3.9718 177.5910 0.0000 0.0000 0.0000 -21.9301 -7.1743 0.2859 1.5283 7.8055 22.1249 0.5396 5.9605 -17.3269 0.2627 -3.2972 -9.1074 0.0000 0.0000 0.0000 16.2956 8.3747 -3.4699 -2.2648 -9.3970 27.0454 -0.6948 -6.9608 -19.7854 -0.0357 -1.2189 3.3514 -4.4646 -0.0819 21.4190 4.0782 -0.3313 1.1007 7.2121 0.3589 -10.7624 -2.5151 0.1517 -7.3343 -4.8972 1.3489 10.4191 -1.0048 0.4079 4.3497 -0.0000 0.0000 0.0000 -85.6141 15.5812 14.0816 29.0879 -40.0987 -10.8173 -0.0000 0.0000 -10.2774 14.5414 53.6589 11.8015 -7.1250 0.0000 -0.0000 -68.5264 76.8862 -55.5310 -0.0000 0.0000 0.0000 54.4336 -7.4777 -42.9646 -90.6466 59.9984 -60.5600 0.0000 -0.0000 -39.4555 -3.5269 2.8802 -0.1774 7.1250 -0.0000 -0.0000 17.4520 -26.9588 7.9945
0.00 0.00 0.00 -179.5690 6.1598 178.2540 0.0000 0.0000 0.0000 -22.0260 -7.0605 -0.7822 1.5349 7.8216 22.1734 0.4330 7.7796 -17.6392 0.2168 -2.9977 -8.2723 0.0000 0.0000 0.0000 16.0090 10.0699 -4.9928 -2.3997 -9.6532 27.8608 -0.6912 -6.0189 -19.0316 -0.0233 -0.9859 2.7100 -3.5437 -0.2387 22.3657 3.9617 -0.3208 1.1708 6.5654 0.3385 -11.2145 -1.9321 0.7970 -8.8223 -4.3789 2.2433 12.3589 -0.8778 0.8339 5.2081 -0.0000 0.0000 0.0000 -85.6383 14.9444 15.3195 29.1214 -40.1283 -10.8388 -0.0000 0.0000 -10.1119 14.9061 54.9877 12.2991 -7.1250 0.0000 -0.0000 -74.2305 77.2785 -61.3300 -0.0000 0.0000 0.0000 55.2221 -4.9173 -29.4749 -109.7551 58.4728 -77.0206 0.0000 -0.0000 -22.8648 -3.0305 2.9819 -0.1578 7.1250 -0.0000 -0.0000 17.8015 -26.8558 8.2156
0.00 0.00 0.00 -180.2330 12.1395 180.1760 0.0000 0.0000 0.0000 -22.4654 -4.9456 -6.7390 2.0457 8.9607 25.6725 0.3821 9.9760 -19.2404 0.2073 -2.9316 -8.0884 0.0000 0.0000 0.0000 13.9616 11.4277 -12.3684 -3.1545 -10.9411 32.0814 -0.6290 -1.8808 -15.7784 -0.0011 0.2142 -0.5885 -2.9913 0.5458 24.5974 3.7024 0.8800 1.9031 5.5811 0.9022 -11.7516 -1.2887 -0.9389 -10.0405 -3.5470 0.0856 17.2145 -0.8986 -0.1511 6.9192 -0.0000 -0.0000 0.0000 -86.2387 10.2917 20.8874 30.9627 -41.7044 -12.0450 -0.0000 0.0000 -10.9296 15.8553 54.1325 12.9613 -7.1250 0.0000 -0.0000 -70.2664 77.5016 -57.8166 -0.0000 -0.0000 0.0000 62.4129 8.8380 7.8854 -99.2656 59.6731 -68.0155 0.0000 0.0000 13.4225 -16.9109 6.9719 -2.1135 7.1250 -0.0000 -0.0000 7.2269 -22.7124 3.9064
0.00 0.00 0.00 -180.5140 13.5214 180.3420 0.0000 0.0000 0.0000 -22.5428 -4.0614 -8.3678 2.2167 9.3035 26.7495 0.3920 9.9574 -19.3295 0.2026 -2.8982 -7.9956 0.0000 0.0000 0.0000 13.4615 12.1582 -14.3966 -3.5124 -11.4816 33.9219 -0.6539 -0.7519 -15.5676 -0.0248 -1.0158 2.7922 -3.2690 0.8928 25.4139 3.7213 1.3116 2.3756 5.6126 1.1347 -11.7049 -2.0189 -1.8258 -10.8615 -2.8802 -0.8963 19.4810 -0.6669 -0.6014 7.8038 0.0000 -0.0000 0.0000 -86.5225 8.4014 22.6011 31.6179 -42.2404 -12.4832 -0.0000 0.0000 -10.6839 14.8302 54.8815 12.2202 -7.1250 0.0000 -0.0000 -73.7674 77.2345 -60.8400 0.0000 -0.0000 0.0000 64.7642 13.2282 15.0355 -80.1038 59.6267 -51.4404 0.0000 0.0000 15.4770 -19.4081 7.8243 -2.7460 7.1250 -0.0000 -0.0000 5.3920 -21.7044 3.0288
0.00 0.00 0.00 -180.9980 13.6030 187.9880 0.0000 0.0000 0.0000 -16.5805 -8.0836 -18.7566 2.6372 10.0831 29.2463 0.3084 9.6687 -18.0712 0.2476 -3.2018 -8.8412 0.0000 0.0000 0.0000 15.4020 14.8600 -24.7991 -3.8664 -11.9805 35.6631 -0.6128 1.1541 -14.4379 -0.2189 -3.0118 8.3115 -2.4497 -0.1260 31.7653 2.6555 0.6202 4.8555 3.8226 0.9139 -11.1433 -0.0204 -0.2834 -12.9803 0.0053 0.4535 23.1863 0.1076 0.5012 9.4492 0.0000 0.0000 0.0000 -94.2795 -10.4701 37.4883 71.5133 -58.6684 -44.0616 -0.0000 -0.0000 6.4117 71.4096 64.2150 69.5172 -7.1250 0.0000 -0.0000 -175.8213 -68.7545 177.6180 0.0000 0.0000 0.0000 80.2908 0.8504 27.3493 -33.2588 43.5280 -13.6000 0.0000 0.0000 3.1788 -9.8655 7.0435 -1.2217 7.1250 -0.0000 -0.0000 12.3522 -22.8700 6.7336
0.00 0.00 0.00 -179.5650 16.6873 189.1060 0.0000 0.0000 0.0000 -13.8640 -6.1845 -24.2445 4.0197 12.1866 36.3953 0.2162 10.9755 -18.4674 0.4501 -4.3042 -11.9340 0.0000 0.0000 0.0000 17.5727 16.3238 -26.1104 -3.9665 -12.1157 36.1424 -0.5433 4.4961 -13.1203 -0.2599 -3.2800 9.0592 -1.9542 -1.0118 34.1756 2.7591 0.0194 6.2648 3.8581 0.7364 -10.4777 0.9248 2.3318 -11.9776 -0.9734 3.8586 20.6346 -0.0369 1.9929 8.4254 0.0000 0.0000 0.0000 -88.0083 -21.6145 32.4267 47.0661 -51.7414 -23.8503 -0.0000 -0.0000 28.1705 -58.5438 61.3992 -55.1323 -7.1250 0.0000 -0.0000 -81.6915 -57.7346 118.6726 0.0000 0.0000 0.0000 79.3439 -1.9613 27.6164 -36.7359 46.0126 -16.0498 0.0000 0.0000 4.9366 -14.5399 6.2889 -1.6274 7.1250 -0.0000 -0.0000 8.9916 -23.4991 4.7169
